<svg width="932" height="56" viewBox="0 0 932 56" fill="none" xmlns="http://www.w3.org/2000/svg">
<path d="M39 17V40C39 40.2652 38.8946 40.5196 38.7071 40.7071C38.5196 40.8946 38.2652 41 38 41C37.7348 41 37.4804 40.8946 37.2929 40.7071C37.1054 40.5196 37 40.2652 37 40V34H31C30.7348 34 30.4804 33.8946 30.2929 33.7071C30.1054 33.5196 30 33.2652 30 33C30.0464 30.6046 30.349 28.221 30.9025 25.89C32.125 20.8287 34.4425 17.4362 37.6063 16.0812C37.7583 16.0161 37.9242 15.9897 38.0889 16.0044C38.2537 16.0191 38.4123 16.0745 38.5504 16.1655C38.6885 16.2566 38.8019 16.3805 38.8803 16.5261C38.9588 16.6717 38.9999 16.8346 39 17ZM26.9862 16.8362C26.9667 16.7049 26.9211 16.5788 26.8523 16.4653C26.7835 16.3518 26.6927 16.2531 26.5854 16.175C26.478 16.0969 26.3561 16.041 26.2269 16.0105C26.0977 15.98 25.9637 15.9755 25.8328 15.9974C25.7018 16.0192 25.5765 16.0669 25.4642 16.1376C25.3519 16.2084 25.2548 16.3008 25.1785 16.4095C25.1023 16.5182 25.0484 16.641 25.0202 16.7707C24.9919 16.9004 24.9897 17.0344 25.0138 17.165L25.9862 23H23V17C23 16.7348 22.8946 16.4804 22.7071 16.2929C22.5196 16.1053 22.2652 16 22 16C21.7348 16 21.4804 16.1053 21.2929 16.2929C21.1054 16.4804 21 16.7348 21 17V23H18.0138L18.9862 17.165C19.0103 17.0344 19.0081 16.9004 18.9798 16.7707C18.9516 16.641 18.8977 16.5182 18.8215 16.4095C18.7452 16.3008 18.6481 16.2084 18.5358 16.1376C18.4235 16.0669 18.2982 16.0192 18.1672 15.9974C18.0363 15.9755 17.9023 15.98 17.7731 16.0105C17.6438 16.041 17.522 16.0969 17.4146 16.175C17.3073 16.2531 17.2165 16.3518 17.1477 16.4653C17.0789 16.5788 17.0333 16.7049 17.0138 16.8362L16.0138 22.8362C16.0048 22.8904 16.0002 22.9451 16 23C16.002 24.4173 16.5049 25.7882 17.4198 26.8706C18.3348 27.9529 19.6029 28.6771 21 28.915V40C21 40.2652 21.1054 40.5196 21.2929 40.7071C21.4804 40.8946 21.7348 41 22 41C22.2652 41 22.5196 40.8946 22.7071 40.7071C22.8946 40.5196 23 40.2652 23 40V28.915C24.3971 28.6771 25.6652 27.9529 26.5802 26.8706C27.4951 25.7882 27.998 24.4173 28 23C27.9998 22.9451 27.9952 22.8904 27.9862 22.8362L26.9862 16.8362Z" fill="black"/>
<path d="M88 16C88 15.7348 88.1054 15.4804 88.2929 15.2929C88.4804 15.1054 88.7348 15 89 15H95C95.2652 15 95.5196 15.1054 95.7071 15.2929C95.8946 15.4804 96 15.7348 96 16C96 16.2652 95.8946 16.5196 95.7071 16.7071C95.5196 16.8946 95.2652 17 95 17H89C88.7348 17 88.4804 16.8946 88.2929 16.7071C88.1054 16.5196 88 16.2652 88 16ZM107 27C107 27.2652 106.895 27.5196 106.707 27.7071C106.52 27.8946 106.265 28 106 28H105V38C105 38.5304 104.789 39.0391 104.414 39.4142C104.039 39.7893 103.53 40 103 40H100C99.4696 40 98.9609 39.7893 98.5858 39.4142C98.2107 39.0391 98 38.5304 98 38V36H86V38C86 38.5304 85.7893 39.0391 85.4142 39.4142C85.0391 39.7893 84.5304 40 84 40H81C80.4696 40 79.9609 39.7893 79.5858 39.4142C79.2107 39.0391 79 38.5304 79 38V28H78C77.7348 28 77.4804 27.8946 77.2929 27.7071C77.1054 27.5196 77 27.2652 77 27C77 26.7348 77.1054 26.4804 77.2929 26.2929C77.4804 26.1054 77.7348 26 78 26H79.42L82.8438 20.0075C83.0187 19.7014 83.2714 19.4471 83.5763 19.2701C83.8812 19.0932 84.2275 19 84.58 19H99.42C99.7725 19 100.119 19.0932 100.424 19.2701C100.729 19.4471 100.981 19.7014 101.156 20.0075L104.58 26H106C106.265 26 106.52 26.1054 106.707 26.2929C106.895 26.4804 107 26.7348 107 27ZM87 31C87 30.7348 86.8946 30.4804 86.7071 30.2929C86.5196 30.1054 86.2652 30 86 30H84C83.7348 30 83.4804 30.1054 83.2929 30.2929C83.1054 30.4804 83 30.7348 83 31C83 31.2652 83.1054 31.5196 83.2929 31.7071C83.4804 31.8946 83.7348 32 84 32H86C86.2652 32 86.5196 31.8946 86.7071 31.7071C86.8946 31.5196 87 31.2652 87 31ZM101 31C101 30.7348 100.895 30.4804 100.707 30.2929C100.52 30.1054 100.265 30 100 30H98C97.7348 30 97.4804 30.1054 97.2929 30.2929C97.1054 30.4804 97 30.7348 97 31C97 31.2652 97.1054 31.5196 97.2929 31.7071C97.4804 31.8946 97.7348 32 98 32H100C100.265 32 100.52 31.8946 100.707 31.7071C100.895 31.5196 101 31.2652 101 31Z" fill="black"/>
<path d="M166 21H143V18C143 17.7348 142.895 17.4804 142.707 17.2929C142.52 17.1054 142.265 17 142 17C141.735 17 141.48 17.1054 141.293 17.2929C141.105 17.4804 141 17.7348 141 18V38C141 38.2652 141.105 38.5196 141.293 38.7071C141.48 38.8946 141.735 39 142 39C142.265 39 142.52 38.8946 142.707 38.7071C142.895 38.5196 143 38.2652 143 38V34H169V38C169 38.2652 169.105 38.5196 169.293 38.7071C169.48 38.8946 169.735 39 170 39C170.265 39 170.52 38.8946 170.707 38.7071C170.895 38.5196 171 38.2652 171 38V26C171 24.6739 170.473 23.4021 169.536 22.4645C168.598 21.5268 167.326 21 166 21ZM143 23H152V32H143V23Z" fill="black"/>
<path d="M219 21.5V35.5C219 35.6326 218.947 35.7598 218.854 35.8536C218.76 35.9473 218.633 36 218.5 36H216V38H217.966C218.224 37.9968 218.474 38.0913 218.665 38.2645C218.856 38.4376 218.975 38.6767 218.998 38.9338C219.007 39.0705 218.987 39.2077 218.941 39.3368C218.895 39.4659 218.823 39.5841 218.729 39.6841C218.635 39.7841 218.522 39.8637 218.396 39.9181C218.27 39.9724 218.135 40.0003 217.998 40H212.034C211.775 40.0038 211.525 39.9096 211.333 39.7364C211.141 39.5632 211.022 39.3237 211 39.0662C210.991 38.9295 211.01 38.7923 211.056 38.6632C211.102 38.5341 211.175 38.4159 211.268 38.3159C211.362 38.2159 211.476 38.1363 211.601 38.0819C211.727 38.0276 211.863 37.9997 212 38H214V36H208C207.204 36 206.441 35.6839 205.879 35.1213C205.316 34.5587 205 33.7956 205 33V24C205 23.2044 205.316 22.4413 205.879 21.8787C206.441 21.3161 207.204 21 208 21H218.5C218.633 21 218.76 21.0527 218.854 21.1464C218.947 21.2402 219 21.3674 219 21.5ZM235 18V38C235 38.5304 234.789 39.0391 234.414 39.4142C234.039 39.7893 233.53 40 233 40H223C222.47 40 221.961 39.7893 221.586 39.4142C221.211 39.0391 221 38.5304 221 38V18C221 17.4696 221.211 16.9609 221.586 16.5858C221.961 16.2107 222.47 16 223 16H233C233.53 16 234.039 16.2107 234.414 16.5858C234.789 16.9609 235 17.4696 235 18ZM229.487 34.6963C229.528 34.3856 229.471 34.0698 229.323 33.7934C229.176 33.517 228.945 33.2938 228.664 33.1551C228.383 33.0164 228.066 32.9692 227.757 33.0201C227.447 33.071 227.162 33.2175 226.94 33.439C226.719 33.6605 226.572 33.9458 226.521 34.255C226.469 34.5642 226.516 34.8816 226.655 35.1628C226.793 35.4439 227.016 35.6746 227.292 35.8226C227.569 35.9705 227.884 36.0282 228.195 35.9875C228.523 35.9446 228.827 35.7948 229.061 35.5614C229.294 35.3279 229.444 35.0238 229.487 34.6963ZM232 24.9338C231.978 24.6763 231.859 24.4368 231.667 24.2636C231.475 24.0904 231.225 23.9962 230.966 24H225.034C224.776 23.9968 224.526 24.0913 224.335 24.2645C224.144 24.4376 224.025 24.6767 224.003 24.9338C223.993 25.0705 224.013 25.2077 224.059 25.3368C224.105 25.4659 224.177 25.5841 224.271 25.6841C224.365 25.7841 224.478 25.8637 224.604 25.9181C224.73 25.9724 224.865 26.0003 225.003 26H231.003C231.139 26 231.275 25.9718 231.4 25.9173C231.526 25.8628 231.639 25.7831 231.732 25.6832C231.826 25.5832 231.898 25.4651 231.944 25.3362C231.99 25.2073 232.009 25.0703 232 24.9338ZM232 20.9338C231.978 20.6763 231.859 20.4368 231.667 20.2636C231.475 20.0904 231.225 19.9962 230.966 20H225.034C224.775 19.9962 224.525 20.0904 224.333 20.2636C224.141 20.4368 224.022 20.6763 224 20.9338C223.991 21.0705 224.01 21.2077 224.056 21.3368C224.102 21.4659 224.175 21.5841 224.268 21.6841C224.362 21.7841 224.476 21.8637 224.601 21.9181C224.727 21.9724 224.863 22.0003 225 22H231C231.137 22.0003 231.273 21.9724 231.399 21.9181C231.524 21.8637 231.638 21.7841 231.732 21.6841C231.825 21.5841 231.898 21.4659 231.944 21.3368C231.99 21.2077 232.009 21.0705 232 20.9338Z" fill="black"/>
<path d="M297 24C297.002 25.4968 296.63 26.9703 295.918 28.2871C295.207 29.604 294.178 30.7226 292.925 31.5417C291.673 32.3608 290.235 32.8546 288.744 32.9782C287.252 33.1019 285.753 32.8516 284.383 32.25L277.875 39.7775C277.86 39.795 277.843 39.8137 277.826 39.83C277.076 40.5802 276.059 41.0017 274.998 41.0017C273.937 41.0017 272.919 40.5802 272.169 39.83C271.419 39.0798 270.997 38.0622 270.997 37.0012C270.997 35.9403 271.419 34.9227 272.169 34.1725C272.186 34.1562 272.204 34.1387 272.223 34.1237L279.75 27.6175C279.076 26.0748 278.847 24.3739 279.09 22.7078C279.333 21.0418 280.039 19.4772 281.126 18.1916C282.213 16.906 283.639 15.9508 285.241 15.4344C286.844 14.918 288.559 14.8611 290.193 15.27C290.361 15.3122 290.515 15.3975 290.641 15.5175C290.766 15.6375 290.858 15.7881 290.908 15.9544C290.957 16.1208 290.963 16.2972 290.923 16.4663C290.884 16.6353 290.802 16.7913 290.684 16.9187L286 22L286.708 25.2937L290 26L295.081 21.31C295.209 21.1922 295.365 21.1096 295.534 21.0703C295.703 21.031 295.879 21.0364 296.046 21.086C296.212 21.1356 296.363 21.2276 296.483 21.353C296.603 21.4784 296.688 21.6329 296.73 21.8012C296.909 22.5204 297 23.2588 297 24Z" fill="black"/>
<path d="M359 17H337C336.47 17 335.961 17.2107 335.586 17.5858C335.211 17.9609 335 18.4696 335 19V38C335 38.1704 335.044 38.338 335.127 38.4869C335.21 38.6357 335.33 38.7608 335.475 38.8503C335.62 38.9399 335.785 38.9909 335.955 38.9985C336.126 39.0061 336.295 38.97 336.448 38.8937L340 37.1175L343.552 38.8937C343.691 38.9633 343.845 38.9995 344 38.9995C344.155 38.9995 344.309 38.9633 344.448 38.8937L348 37.1175L351.552 38.8937C351.691 38.9633 351.845 38.9995 352 38.9995C352.155 38.9995 352.309 38.9633 352.448 38.8937L356 37.1175L359.552 38.8937C359.705 38.97 359.874 39.0061 360.045 38.9985C360.215 38.9909 360.38 38.9399 360.525 38.8503C360.67 38.7608 360.79 38.6357 360.873 38.4869C360.956 38.338 361 38.1704 361 38V19C361 18.4696 360.789 17.9609 360.414 17.5858C360.039 17.2107 359.53 17 359 17ZM354 30H342C341.735 30 341.48 29.8946 341.293 29.7071C341.105 29.5196 341 29.2652 341 29C341 28.7348 341.105 28.4804 341.293 28.2929C341.48 28.1054 341.735 28 342 28H354C354.265 28 354.52 28.1054 354.707 28.2929C354.895 28.4804 355 28.7348 355 29C355 29.2652 354.895 29.5196 354.707 29.7071C354.52 29.8946 354.265 30 354 30ZM354 26H342C341.735 26 341.48 25.8946 341.293 25.7071C341.105 25.5196 341 25.2652 341 25C341 24.7348 341.105 24.4804 341.293 24.2929C341.48 24.1054 341.735 24 342 24H354C354.265 24 354.52 24.1054 354.707 24.2929C354.895 24.4804 355 24.7348 355 25C355 25.2652 354.895 25.5196 354.707 25.7071C354.52 25.8946 354.265 26 354 26Z" fill="black"/>
<path d="M422.061 35.9387C422.343 36.2205 422.501 36.6027 422.501 37.0012C422.501 37.3997 422.343 37.7819 422.061 38.0637C421.779 38.3455 421.397 38.5038 420.999 38.5038C420.6 38.5038 420.218 38.3455 419.936 38.0637L412 30.125L404.061 38.0612C403.779 38.343 403.397 38.5013 402.999 38.5013C402.6 38.5013 402.218 38.343 401.936 38.0612C401.654 37.7794 401.496 37.3972 401.496 36.9987C401.496 36.6002 401.654 36.218 401.936 35.9362L409.875 28L401.939 20.0612C401.657 19.7794 401.499 19.3972 401.499 18.9987C401.499 18.6002 401.657 18.218 401.939 17.9362C402.22 17.6544 402.603 17.4961 403.001 17.4961C403.4 17.4961 403.782 17.6544 404.064 17.9362L412 25.875L419.939 17.935C420.22 17.6532 420.603 17.4949 421.001 17.4949C421.4 17.4949 421.782 17.6532 422.064 17.935C422.345 18.2168 422.504 18.599 422.504 18.9975C422.504 19.396 422.345 19.7782 422.064 20.06L414.125 28L422.061 35.9387Z" fill="black"/>
</svg>
